<svg width="32" height="32" viewBox="0 0 32 32" fill="none" xmlns="http://www.w3.org/2000/svg">
<g id="bx:bx-menu-alt-left">
<path id="Vector" d="M5.33301 16C5.33301 15.2636 5.92996 14.6667 6.66634 14.6667H19.9997C20.7361 14.6667 21.333 15.2636 21.333 16C21.333 16.7364 20.7361 17.3333 19.9997 17.3333H6.66634C5.92996 17.3333 5.33301 16.7364 5.33301 16ZM5.33301 9.33333C5.33301 8.59695 5.92996 8 6.66634 8H25.333C26.0694 8 26.6663 8.59695 26.6663 9.33333C26.6663 10.0697 26.0694 10.6667 25.333 10.6667H6.66634C5.92996 10.6667 5.33301 10.0697 5.33301 9.33333ZM5.33301 22.6667C5.33301 23.403 5.92996 24 6.66634 24H13.6463C14.3827 24 14.9797 23.403 14.9797 22.6667C14.9797 21.9303 14.3827 21.3333 13.6463 21.3333H6.66634C5.92996 21.3333 5.33301 21.9303 5.33301 22.6667Z" fill="#2D3B70"/>
</g>
</svg>
